<svg width="6536" height="3470" xmlns="http://www.w3.org/2000/svg" xmlns:xlink="http://www.w3.org/1999/xlink" xml:space="preserve" overflow="hidden"><defs><filter id="fx0" x="-10%" y="-10%" width="120%" height="120%" filterUnits="userSpaceOnUse" primitiveUnits="userSpaceOnUse"><feComponentTransfer color-interpolation-filters="sRGB"><feFuncR type="discrete" tableValues="0 0"/><feFuncG type="discrete" tableValues="0 0"/><feFuncB type="discrete" tableValues="0 0"/><feFuncA type="linear" slope="0.2" intercept="0"/></feComponentTransfer><feGaussianBlur stdDeviation="7.64123 7.63229"/></filter><filter id="fx1" x="-10%" y="-10%" width="120%" height="120%" filterUnits="userSpaceOnUse" primitiveUnits="userSpaceOnUse"><feComponentTransfer color-interpolation-filters="sRGB"><feFuncR type="discrete" tableValues="0 0"/><feFuncG type="discrete" tableValues="0 0"/><feFuncB type="discrete" tableValues="0 0"/><feFuncA type="linear" slope="0.101961" intercept="0"/></feComponentTransfer><feGaussianBlur stdDeviation="7.62789 7.64711"/></filter><clipPath id="clip2"><rect x="-11" y="-220" width="6536" height="3470"/></clipPath><clipPath id="clip3"><rect x="0" y="0" width="654" height="347"/></clipPath><clipPath id="clip4"><rect x="0" y="0" width="208" height="93"/></clipPath><linearGradient x1="-288.5" y1="288.5" x2="755.5" y2="1332.5" gradientUnits="userSpaceOnUse" spreadMethod="reflect" id="fill5"><stop offset="0" stop-color="#A90000"/><stop offset="0.00628931" stop-color="#A80001"/><stop offset="0.0125786" stop-color="#A80103"/><stop offset="0.0188679" stop-color="#A80105"/><stop offset="0.0251572" stop-color="#A80207"/><stop offset="0.0314465" stop-color="#A80209"/><stop offset="0.0377358" stop-color="#A8030B"/><stop offset="0.0440252" stop-color="#A8030C"/><stop offset="0.0503145" stop-color="#A8040E"/><stop offset="0.0566038" stop-color="#A80410"/><stop offset="0.0628931" stop-color="#A80512"/><stop offset="0.0691824" stop-color="#A80614"/><stop offset="0.0754717" stop-color="#A80615"/><stop offset="0.081761" stop-color="#A80717"/><stop offset="0.0880503" stop-color="#A80719"/><stop offset="0.0943396" stop-color="#A8081B"/><stop offset="0.100629" stop-color="#A8081C"/><stop offset="0.106918" stop-color="#A8091E"/><stop offset="0.113208" stop-color="#A80920"/><stop offset="0.119497" stop-color="#A70A21"/><stop offset="0.125786" stop-color="#A70A23"/><stop offset="0.132075" stop-color="#A70B25"/><stop offset="0.138365" stop-color="#A70B26"/><stop offset="0.144654" stop-color="#A70C28"/><stop offset="0.150943" stop-color="#A70C2A"/><stop offset="0.157233" stop-color="#A70D2B"/><stop offset="0.163522" stop-color="#A70D2D"/><stop offset="0.169811" stop-color="#A60E2F"/><stop offset="0.176101" stop-color="#A60E30"/><stop offset="0.18239" stop-color="#A60F32"/><stop offset="0.188679" stop-color="#A60F33"/><stop offset="0.194969" stop-color="#A61035"/><stop offset="0.201258" stop-color="#A61037"/><stop offset="0.207547" stop-color="#A61038"/><stop offset="0.213836" stop-color="#A5113A"/><stop offset="0.220126" stop-color="#A5113B"/><stop offset="0.226415" stop-color="#A5123D"/><stop offset="0.232704" stop-color="#A5123E"/><stop offset="0.238994" stop-color="#A51340"/><stop offset="0.245283" stop-color="#A41341"/><stop offset="0.251572" stop-color="#A41443"/><stop offset="0.257862" stop-color="#A41444"/><stop offset="0.264151" stop-color="#A41445"/><stop offset="0.27044" stop-color="#A41547"/><stop offset="0.27673" stop-color="#A31548"/><stop offset="0.283019" stop-color="#A3164A"/><stop offset="0.289308" stop-color="#A3164B"/><stop offset="0.295597" stop-color="#A3174D"/><stop offset="0.301887" stop-color="#A2174E"/><stop offset="0.308176" stop-color="#A2174F"/><stop offset="0.314465" stop-color="#A21851"/><stop offset="0.320755" stop-color="#A21852"/><stop offset="0.327044" stop-color="#A11953"/><stop offset="0.333333" stop-color="#A11955"/><stop offset="0.339623" stop-color="#A11956"/><stop offset="0.345912" stop-color="#A11A57"/><stop offset="0.352201" stop-color="#A01A59"/><stop offset="0.358491" stop-color="#A01B5A"/><stop offset="0.36478" stop-color="#A01B5B"/><stop offset="0.371069" stop-color="#A01B5C"/><stop offset="0.377358" stop-color="#9F1C5E"/><stop offset="0.383648" stop-color="#9F1C5F"/><stop offset="0.389937" stop-color="#9F1C60"/><stop offset="0.396226" stop-color="#9E1D61"/><stop offset="0.402516" stop-color="#9E1D63"/><stop offset="0.408805" stop-color="#9E1E64"/><stop offset="0.415094" stop-color="#9E1E65"/><stop offset="0.421384" stop-color="#9D1E66"/><stop offset="0.427673" stop-color="#9D1F67"/><stop offset="0.433962" stop-color="#9D1F68"/><stop offset="0.440252" stop-color="#9C1F6A"/><stop offset="0.446541" stop-color="#9C206B"/><stop offset="0.45283" stop-color="#9C206C"/><stop offset="0.459119" stop-color="#9B206D"/><stop offset="0.465409" stop-color="#9B216E"/><stop offset="0.471698" stop-color="#9B216F"/><stop offset="0.477987" stop-color="#9A2170"/><stop offset="0.484277" stop-color="#9A2271"/><stop offset="0.490566" stop-color="#9A2272"/><stop offset="0.496855" stop-color="#992273"/><stop offset="0.503145" stop-color="#992374"/><stop offset="0.509434" stop-color="#982375"/><stop offset="0.515723" stop-color="#982376"/><stop offset="0.522013" stop-color="#982377"/><stop offset="0.528302" stop-color="#972478"/><stop offset="0.534591" stop-color="#972479"/><stop offset="0.540881" stop-color="#96247A"/><stop offset="0.54717" stop-color="#96257B"/><stop offset="0.553459" stop-color="#96257C"/><stop offset="0.559748" stop-color="#95257D"/><stop offset="0.566038" stop-color="#95257E"/><stop offset="0.572327" stop-color="#94267F"/><stop offset="0.578616" stop-color="#942680"/><stop offset="0.584906" stop-color="#942681"/><stop offset="0.591195" stop-color="#932782"/><stop offset="0.597484" stop-color="#932782"/><stop offset="0.603774" stop-color="#922783"/><stop offset="0.610063" stop-color="#922784"/><stop offset="0.616352" stop-color="#912885"/><stop offset="0.622642" stop-color="#912886"/><stop offset="0.628931" stop-color="#912887"/><stop offset="0.63522" stop-color="#902887"/><stop offset="0.641509" stop-color="#902888"/><stop offset="0.647799" stop-color="#8F2989"/><stop offset="0.654088" stop-color="#8F298A"/><stop offset="0.660377" stop-color="#8E298A"/><stop offset="0.666667" stop-color="#8E298B"/><stop offset="0.672956" stop-color="#8D2A8C"/><stop offset="0.679245" stop-color="#8D2A8D"/><stop offset="0.685535" stop-color="#8C2A8D"/><stop offset="0.691824" stop-color="#8C2A8E"/><stop offset="0.698113" stop-color="#8B2A8F"/><stop offset="0.704403" stop-color="#8B2B8F"/><stop offset="0.710692" stop-color="#8A2B90"/><stop offset="0.716981" stop-color="#8A2B90"/><stop offset="0.72327" stop-color="#892B91"/><stop offset="0.72956" stop-color="#892B92"/><stop offset="0.735849" stop-color="#882C92"/><stop offset="0.742138" stop-color="#882C93"/><stop offset="0.748428" stop-color="#872C93"/><stop offset="0.754717" stop-color="#872C94"/><stop offset="0.761006" stop-color="#862C95"/><stop offset="0.767296" stop-color="#862C95"/><stop offset="0.773585" stop-color="#852D96"/><stop offset="0.779874" stop-color="#852D96"/><stop offset="0.786164" stop-color="#842D97"/><stop offset="0.792453" stop-color="#842D97"/><stop offset="0.798742" stop-color="#832D98"/><stop offset="0.805031" stop-color="#832D98"/><stop offset="0.811321" stop-color="#822D98"/><stop offset="0.81761" stop-color="#812E99"/><stop offset="0.823899" stop-color="#812E99"/><stop offset="0.830189" stop-color="#802E9A"/><stop offset="0.836478" stop-color="#802E9A"/><stop offset="0.842767" stop-color="#7F2E9B"/><stop offset="0.849057" stop-color="#7F2E9B"/><stop offset="0.855346" stop-color="#7E2E9B"/><stop offset="0.861635" stop-color="#7D2E9C"/><stop offset="0.867925" stop-color="#7D2E9C"/><stop offset="0.874214" stop-color="#7C2F9C"/><stop offset="0.880503" stop-color="#7C2F9D"/><stop offset="0.886792" stop-color="#7B2F9D"/><stop offset="0.893082" stop-color="#7A2F9D"/><stop offset="0.899371" stop-color="#7A2F9D"/><stop offset="0.90566" stop-color="#792F9E"/><stop offset="0.91195" stop-color="#792F9E"/><stop offset="0.918239" stop-color="#782F9E"/><stop offset="0.924528" stop-color="#772F9E"/><stop offset="0.930818" stop-color="#772F9E"/><stop offset="0.937107" stop-color="#762F9F"/><stop offset="0.943396" stop-color="#752F9F"/><stop offset="0.949686" stop-color="#752F9F"/><stop offset="0.955975" stop-color="#742F9F"/><stop offset="0.962264" stop-color="#732F9F"/><stop offset="0.968553" stop-color="#732F9F"/><stop offset="0.974843" stop-color="#722F9F"/><stop offset="0.981132" stop-color="#712F9F"/><stop offset="0.987421" stop-color="#712F9F"/><stop offset="0.993711" stop-color="#702F9F"/><stop offset="1" stop-color="#7030A0"/></linearGradient></defs><g clip-path="url(#clip2)" transform="translate(11 220)"><g filter="url(#fx0)" transform="matrix(9.99694 0 0 10.0086 -11 -221)"><g clip-path="url(#clip3)"><path d="M624.351 23.0524C627.948 23.0524 630.865 25.9656 630.865 29.5593L630.865 317.385C630.865 320.979 627.948 323.892 624.351 323.892L29.5939 323.892C25.996 323.892 23.0793 320.979 23.0793 317.385L23.0793 29.5593C23.0793 25.9656 25.996 23.0524 29.5939 23.0524Z" fill="#FFFFFF" fill-rule="evenodd"/></g></g><path d="M6220.87 0.000180446C6256.84 0.000180446 6286 29.158 6286 65.1259L6286 2945.87C6286 2981.84 6256.84 3011 6220.87 3011L275.126 3011C239.158 3011 210 2981.84 210 2945.87L210 65.1259C210 29.158 239.158 0.000180446 275.126 0.000180446Z" fill="#FFFFFF" fill-rule="evenodd"/><g filter="url(#fx1)" transform="matrix(10.0144 0 0 9.98925 -12 161)"><g clip-path="url(#clip4)"><path d="M0 0 46.6328 0 46.6328 146.235C46.6328 154.868 39.6344 161.867 31.0014 161.867L15.6313 161.867C6.99839 161.867 0 154.868 0 146.235L0 0Z" fill="#FF0000" fill-rule="evenodd" transform="matrix(1.83697e-16 1.00252 1 -1.8416e-16 23.039 23.0971)"/></g></g><path d="M0 0 467 0 467 1464.46C467 1550.92 396.915 1621 310.461 1621L156.539 1621C70.0849 1621 0 1550.92 0 1464.46L0 0Z" fill="url(#fill5)" fill-rule="evenodd" transform="matrix(1.83697e-16 1 1 -1.83697e-16 209 382)"/><text fill="#FFFFFF" font-family="Avenir Next LT Pro,Avenir Next LT Pro_MSFontService,sans-serif" font-weight="700" font-size="168" transform="matrix(1 0 0 1 462.508 608)">Code Schema</text><text fill="#FFFFFF" font-family="Avenir Next LT Pro,Avenir Next LT Pro_MSFontService,sans-serif" font-weight="400" font-size="110" transform="matrix(1 0 0 1 334.954 755)">Implementation of Solution</text><text fill="#454551" font-family="Avenir Next LT Pro,Avenir Next LT Pro_MSFontService,sans-serif" font-weight="700" font-size="64" transform="matrix(1 0 0 1 3180.71 765)">Inheritance</text><text font-family="Avenir Next LT Pro,Avenir Next LT Pro_MSFontService,sans-serif" font-weight="700" font-size="55" transform="matrix(1 0 0 1 3157.95 364)">Methods</text><text fill="#7030A0" font-family="Avenir Next LT Pro,Avenir Next LT Pro_MSFontService,sans-serif" font-weight="400" font-size="50" transform="matrix(1 0 0 1 3157.95 449)">fitness()</text><text fill="#7030A0" font-family="Avenir Next LT Pro,Avenir Next LT Pro_MSFontService,sans-serif" font-weight="400" font-size="50" transform="matrix(1 0 0 1 3157.95 510)">random_initial_representation</text><text fill="#7030A0" font-family="Avenir Next LT Pro,Avenir Next LT Pro_MSFontService,sans-serif" font-weight="400" font-size="50" transform="matrix(1 0 0 1 3851.18 510)">()</text><text fill="#7F7F7F" font-family="Avenir Next LT Pro,Avenir Next LT Pro_MSFontService,sans-serif" font-weight="400" font-size="46" transform="matrix(1 0 0 1 2715.54 442)">Representation </text><text fill="#7F7F7F" font-family="Avenir Next LT Pro,Avenir Next LT Pro_MSFontService,sans-serif" font-weight="400" font-size="32" transform="matrix(1 0 0 1 2715.54 484)">(</text><text fill="#7F7F7F" font-family="Avenir Next LT Pro,Avenir Next LT Pro_MSFontService,sans-serif" font-weight="400" font-size="32" transform="matrix(1 0 0 1 2725.28 484)">repr</text><text fill="#7F7F7F" font-family="Avenir Next LT Pro,Avenir Next LT Pro_MSFontService,sans-serif" font-weight="400" font-size="32" transform="matrix(1 0 0 1 2787.16 484)">)</text><text fill="#7030A0" font-family="Avenir Next LT Pro,Avenir Next LT Pro_MSFontService,sans-serif" font-weight="700" font-size="50" transform="matrix(1 0 0 1 3034.39 256)">Abstract</text><text font-family="Avenir Next LT Pro,Avenir Next LT Pro_MSFontService,sans-serif" font-weight="700" font-size="83" transform="matrix(1 0 0 1 2969.94 187)">Solution</text><text font-family="Avenir Next LT Pro,Avenir Next LT Pro_MSFontService,sans-serif" font-weight="700" font-size="55" transform="matrix(1 0 0 1 2715.54 369)">Properties</text><text fill="#7030A0" font-family="Aptos,Aptos_MSFontService,sans-serif" font-style="italic" font-weight="400" font-size="46" transform="matrix(1 0 0 1 3565.92 360)">(To implement!)</text><g><g><g><path d="M2628.38 368.867 2625.98 367.725 2543.58 328.489 2435.75 352.017 2432.62 352.698 2432.62 482.078 2509.14 523.28 2511.49 524.543 2514.58 523.796 2628.38 496.329 2628.38 368.867ZM2542.92 334.198 2617.31 369.619C2617.35 369.638 2617.34 369.661 2617.3 369.67L2545.97 385.658 2545.97 383.504 2540.53 383.504 2540.53 386.876 2512.26 393.213 2443.17 356.012C2443.13 355.993 2443.13 355.97 2443.17 355.961ZM2438.06 478.83 2438.06 359.485C2438.06 359.47 2438.07 359.457 2438.09 359.457 2438.09 359.457 2438.1 359.459 2438.1 359.461L2509.14 397.714 2509.14 517.058C2509.14 517.073 2509.13 517.086 2509.12 517.086 2509.11 517.086 2509.11 517.085 2509.1 517.082ZM2622.94 492.049 2514.58 518.203 2514.58 465.949 2520.91 464.568 2519.75 459.255 2514.58 460.384 2514.58 398.266 2540.53 392.448 2540.53 394.378 2545.97 394.378 2545.97 391.23 2622.94 373.979Z" stroke="#AB74D5" stroke-width="2.71875" fill="#7030A0"/><path d="M2540.53 421.567 2545.97 421.567 2545.97 432.442 2540.53 432.442Z" stroke="#AB74D5" stroke-width="2.71875" fill="#7030A0"/><path d="M2540.53 364.473 2545.97 364.473 2545.97 375.348 2540.53 375.348Z" stroke="#AB74D5" stroke-width="2.71875" fill="#7030A0"/><path d="M2540.53 402.536 2545.97 402.536 2545.97 413.411 2540.53 413.411Z" stroke="#AB74D5" stroke-width="2.71875" fill="#7030A0"/><path d="M2540.53 345.442 2545.97 345.442 2545.97 356.317 2540.53 356.317Z" stroke="#AB74D5" stroke-width="2.71875" fill="#7030A0"/><path d="M2540.53 440.598 2545.97 440.598 2545.97 451.473 2540.53 451.473Z" stroke="#AB74D5" stroke-width="2.71875" fill="#7030A0"/><path d="M2545.53 460.924 2547.77 455.969 2557.68 460.451 2555.44 465.405Z" stroke="#AB74D5" stroke-width="2.71875" fill="#7030A0"/><path d="M2597.54 484.454 2599.79 479.5 2609.69 483.983 2607.45 488.937Z" stroke="#AB74D5" stroke-width="2.71875" fill="#7030A0"/><path d="M2453.34 473.743 2463.97 471.428 2465.13 476.741 2454.5 479.056Z" stroke="#AB74D5" stroke-width="2.71875" fill="#7030A0"/><path d="M2527.72 457.515 2538.35 455.2 2539.5 460.513 2528.88 462.828Z" stroke="#AB74D5" stroke-width="2.71875" fill="#7030A0"/><path d="M2580.2 476.609 2582.45 471.655 2592.35 476.138 2590.11 481.092Z" stroke="#AB74D5" stroke-width="2.71875" fill="#7030A0"/><path d="M2562.87 468.768 2565.11 463.814 2575.01 468.295 2572.77 473.249Z" stroke="#AB74D5" stroke-width="2.71875" fill="#7030A0"/><path d="M2471.94 469.687 2482.56 467.372 2483.72 472.684 2473.1 475Z" stroke="#AB74D5" stroke-width="2.71875" fill="#7030A0"/><path d="M2490.53 465.63 2501.16 463.315 2502.31 468.627 2491.69 470.943Z" stroke="#AB74D5" stroke-width="2.71875" fill="#7030A0"/></g></g></g><text font-family="Avenir Next LT Pro,Avenir Next LT Pro_MSFontService,sans-serif" font-weight="700" font-size="55" transform="matrix(1 0 0 1 3250.41 1182)">Methods</text><text fill="#C00000" font-family="Avenir Next LT Pro,Avenir Next LT Pro_MSFontService,sans-serif" font-weight="400" font-size="50" transform="matrix(1 0 0 1 3250.41 1266)">_</text><text fill="#C00000" font-family="Avenir Next LT Pro,Avenir Next LT Pro_MSFontService,sans-serif" font-weight="400" font-size="50" transform="matrix(1 0 0 1 3275.62 1266)">validate_repr</text><text fill="#C00000" font-family="Avenir Next LT Pro,Avenir Next LT Pro_MSFontService,sans-serif" font-weight="400" font-size="50" transform="matrix(1 0 0 1 3578.69 1266)">() </text><text fill="#C00000" font-family="Avenir Next LT Pro,Avenir Next LT Pro_MSFontService,sans-serif" font-weight="400" font-size="50" transform="matrix(1 0 0 1 3250.41 1327)">fitness()</text><text fill="#C00000" font-family="Avenir Next LT Pro,Avenir Next LT Pro_MSFontService,sans-serif" font-weight="400" font-size="50" transform="matrix(1 0 0 1 3250.41 1387)">random_initial_representation</text><text fill="#C00000" font-family="Avenir Next LT Pro,Avenir Next LT Pro_MSFontService,sans-serif" font-weight="400" font-size="50" transform="matrix(1 0 0 1 3943.64 1387)">()</text><text fill="#7F7F7F" font-family="Avenir Next LT Pro,Avenir Next LT Pro_MSFontService,sans-serif" font-weight="400" font-size="46" transform="matrix(1 0 0 1 2729.83 1260)">Schedule </text><text fill="#7F7F7F" font-family="Avenir Next LT Pro,Avenir Next LT Pro_MSFontService,sans-serif" font-weight="400" font-size="46" transform="matrix(1 0 0 1 2936.66 1260)">Repr</text><text fill="#7F7F7F" font-family="Avenir Next LT Pro,Avenir Next LT Pro_MSFontService,sans-serif" font-weight="400" font-size="46" transform="matrix(1 0 0 1 3036.34 1260)">.</text><text fill="#7F7F7F" font-family="Avenir Next LT Pro,Avenir Next LT Pro_MSFontService,sans-serif" font-weight="400" font-size="46" transform="matrix(1 0 0 1 2729.83 1315)">Artists Data </text><text fill="#7F7F7F" font-family="Avenir Next LT Pro,Avenir Next LT Pro_MSFontService,sans-serif" font-weight="400" font-size="46" transform="matrix(1 0 0 1 2729.83 1370)">Conflict Matrix </text><text fill="#7F7F7F" font-family="Avenir Next LT Pro,Avenir Next LT Pro_MSFontService,sans-serif" font-weight="400" font-size="46" transform="matrix(1 0 0 1 2729.83 1425)">Max Prime Popularity</text><text fill="#7F7F7F" font-family="Avenir Next LT Pro,Avenir Next LT Pro_MSFontService,sans-serif" font-weight="400" font-size="46" transform="matrix(1 0 0 1 2729.83 1480)">Worst Slot Conflict</text><text fill="#7F7F7F" font-family="Avenir Next LT Pro,Avenir Next LT Pro_MSFontService,sans-serif" font-weight="400" font-size="46" transform="matrix(1 0 0 1 2729.83 1535)">Number of Artists </text><text fill="#7F7F7F" font-family="Avenir Next LT Pro,Avenir Next LT Pro_MSFontService,sans-serif" font-weight="400" font-size="46" transform="matrix(1 0 0 1 2729.83 1590)">Number of Slots</text><text fill="#7F7F7F" font-family="Avenir Next LT Pro,Avenir Next LT Pro_MSFontService,sans-serif" font-weight="400" font-size="46" transform="matrix(1 0 0 1 2729.83 1645)">Weight Popularity</text><text fill="#7F7F7F" font-family="Avenir Next LT Pro,Avenir Next LT Pro_MSFontService,sans-serif" font-weight="400" font-size="46" transform="matrix(1 0 0 1 2729.83 1700)">Weight Diversity</text><text fill="#7F7F7F" font-family="Avenir Next LT Pro,Avenir Next LT Pro_MSFontService,sans-serif" font-weight="400" font-size="46" transform="matrix(1 0 0 1 2729.83 1755)">Weight Conflict</text><text font-family="Avenir Next LT Pro,Avenir Next LT Pro_MSFontService,sans-serif" font-weight="700" font-size="83" transform="matrix(1 0 0 1 2916.35 1041)">Lineup Solution</text><text font-family="Avenir Next LT Pro,Avenir Next LT Pro_MSFontService,sans-serif" font-weight="700" font-size="55" transform="matrix(1 0 0 1 2729.83 1187)">Properties</text><text fill="#C00000" font-family="Aptos,Aptos_MSFontService,sans-serif" font-style="italic" font-weight="700" font-size="46" transform="matrix(1 0 0 1 3652.36 1184)">(Implemented!)</text><g><g><g><path d="M97.5001 86.6667C104.979 86.6667 111.042 80.6039 111.042 73.1251 111.042 65.6463 104.979 59.5834 97.5001 59.5834 90.0213 59.5834 83.9584 65.6463 83.9584 73.1251 83.9673 80.6003 90.0248 86.6578 97.5001 86.6667ZM97.5001 65.0001C101.988 65.0001 105.625 68.6376 105.625 73.1251 105.625 77.6125 101.988 81.2501 97.5001 81.2501 93.0126 81.2501 89.3751 77.6125 89.3751 73.1251 89.3751 68.6376 93.0126 65.0001 97.5001 65.0001Z" stroke="#C00000" stroke-width="2.70834" fill="#C00000" transform="matrix(1 0 0 1.00384 2405 1113)"/><path d="M35.2084 86.6667C42.6872 86.6667 48.75 80.6039 48.75 73.1251 48.75 65.6463 42.6872 59.5834 35.2084 59.5834 27.7296 59.5834 21.6667 65.6463 21.6667 73.1251 21.6756 80.6003 27.7331 86.6578 35.2084 86.6667ZM35.2084 65.0001C39.6958 65.0001 43.3334 68.6376 43.3334 73.1251 43.3334 77.6125 39.6958 81.2501 35.2084 81.2501 30.7209 81.2501 27.0834 77.6125 27.0834 73.1251 27.0834 68.6376 30.7209 65.0001 35.2084 65.0001Z" stroke="#C00000" stroke-width="2.70834" fill="#C00000" transform="matrix(1 0 0 1.00384 2405 1113)"/><path d="M222.084 86.6667C229.562 86.6667 235.625 80.6039 235.625 73.1251 235.625 65.6463 229.562 59.5834 222.084 59.5834 214.605 59.5834 208.542 65.6463 208.542 73.1251 208.551 80.6003 214.608 86.6578 222.084 86.6667ZM222.084 65.0001C226.571 65.0001 230.209 68.6376 230.209 73.1251 230.209 77.6125 226.571 81.2501 222.084 81.2501 217.596 81.2501 213.959 77.6125 213.959 73.1251 213.959 68.6376 217.596 65.0001 222.084 65.0001Z" stroke="#C00000" stroke-width="2.70834" fill="#C00000" transform="matrix(1 0 0 1.00384 2405 1113)"/><path d="M159.792 86.6667C167.271 86.6667 173.333 80.6039 173.333 73.1251 173.333 65.6463 167.271 59.5834 159.792 59.5834 152.313 59.5834 146.25 65.6463 146.25 73.1251 146.259 80.6003 152.317 86.6578 159.792 86.6667ZM159.792 65.0001C164.279 65.0001 167.917 68.6376 167.917 73.1251 167.917 77.6125 164.279 81.2501 159.792 81.2501 155.304 81.2501 151.667 77.6125 151.667 73.1251 151.667 68.6376 155.304 65.0001 159.792 65.0001Z" stroke="#C00000" stroke-width="2.70834" fill="#C00000" transform="matrix(1 0 0 1.00384 2405 1113)"/><path d="M63.0176 48.8503C61.5762 48.4502 60.0836 49.2944 59.6836 50.7358 59.6828 50.7393 59.6817 50.7426 59.6809 50.7461L47.6152 94.1715 46.8352 93.9332C43.1232 92.7461 39.2543 92.1227 35.3573 92.0834 31.3834 92.149 27.4376 92.7651 23.6329 93.9142L22.7961 94.1499 10.7358 50.7325C10.335 49.2906 8.84109 48.4467 7.39917 48.8475 5.95725 49.2484 5.11331 50.7423 5.51417 52.1842L19.0558 100.934C19.382 102.107 20.4499 102.918 21.6667 102.917L21.6667 113.75 21.6667 128.042 11.3344 165.255 21.6667 165.255 21.6667 200.417 48.75 200.417 48.75 165.255 59.0823 165.255 48.75 128.039 48.75 102.917 48.75 102.917C49.9658 102.916 51.0324 102.106 51.3582 100.934L64.8998 52.1842C65.3001 50.7439 64.4576 49.2516 63.0176 48.8503ZM27.0834 165.255 32.5 165.255 32.5 195 27.0834 195ZM43.3334 195 37.9167 195 37.9167 165.255 43.3334 165.255ZM51.9594 159.838 18.4573 159.838 27.0834 128.776 27.0834 113.75 27.0834 98.6051C32.3993 97.1388 38.0112 97.1266 43.3334 98.5699L43.3334 128.41Z" stroke="#C00000" stroke-width="2.70834" fill="#C00000" transform="matrix(1 0 0 1.00384 2405 1113)"/><path d="M125.309 48.8503C123.868 48.4502 122.375 49.2944 121.975 50.7358 121.975 50.7393 121.973 50.7426 121.973 50.7461L109.861 94.3503C109.639 94.1789 109.392 94.0442 109.127 93.9522 105.416 92.7586 101.547 92.1286 97.649 92.0834 93.6751 92.149 89.7293 92.7651 85.9247 93.9142 85.6405 94.0052 85.3732 94.1426 85.1338 94.3205L73.0276 50.7325C72.6267 49.2906 71.1328 48.4467 69.6909 48.8475 68.249 49.2484 67.4051 50.7423 67.8059 52.1842L81.3476 100.934C81.6737 102.107 82.7415 102.918 83.9584 102.917L83.9584 102.917 83.9584 200.417 111.042 200.417 111.042 102.917 111.042 102.917C112.258 102.916 113.324 102.106 113.65 100.934L127.192 52.1842C127.592 50.7439 126.749 49.2516 125.309 48.8503ZM100.208 195 100.208 146.25 94.7917 146.25 94.7917 195 89.3751 195 89.3751 98.6213C92.0788 97.9207 94.8562 97.5442 97.649 97.5001 100.342 97.5274 103.022 97.8914 105.625 98.5834L105.625 195Z" stroke="#C00000" stroke-width="2.70834" fill="#C00000" transform="matrix(1 0 0 1.00384 2405 1113)"/><path d="M187.601 48.8503C186.16 48.4502 184.667 49.2944 184.267 50.7358 184.266 50.7393 184.265 50.7426 184.264 50.7461L172.153 94.3503C171.931 94.1789 171.683 94.0442 171.419 93.9522 167.708 92.7586 163.839 92.1286 159.941 92.0834 155.967 92.149 152.021 92.7651 148.216 93.9142 147.932 94.0052 147.665 94.1426 147.426 94.3205L135.319 50.7325C134.918 49.2906 133.425 48.4467 131.983 48.8475 130.541 49.2484 129.697 50.7423 130.098 52.1842L143.639 100.934C143.965 102.107 145.033 102.918 146.25 102.917L146.25 128.039 135.918 165.255 146.25 165.255 146.25 200.417 173.333 200.417 173.333 165.255 183.666 165.255 173.333 128.039 173.333 102.917 173.333 102.917C174.549 102.916 175.616 102.106 175.942 100.934L189.483 52.1842C189.884 50.7439 189.041 49.2516 187.601 48.8503ZM151.667 165.255 157.083 165.255 157.083 195 151.667 195ZM167.917 195 162.5 195 162.5 165.255 167.917 165.255ZM176.543 159.838 143.041 159.838 151.667 128.779 151.667 98.624C154.371 97.9234 157.148 97.5461 159.941 97.5001 162.634 97.5269 165.314 97.8909 167.917 98.5834L167.917 128.408Z" stroke="#C00000" stroke-width="2.70834" fill="#C00000" transform="matrix(1 0 0 1.00384 2405 1113)"/><path d="M249.893 48.8503C248.451 48.4502 246.959 49.2944 246.559 50.7358 246.558 50.7393 246.557 50.7426 246.556 50.7461L234.444 94.3503C234.223 94.1789 233.975 94.0442 233.71 93.9522 229.999 92.7586 226.13 92.1286 222.232 92.0834 218.259 92.149 214.313 92.7651 210.508 93.9142 210.224 94.0052 209.957 94.1426 209.717 94.3205L197.611 50.7325C197.21 49.2906 195.716 48.4467 194.274 48.8475 192.832 49.2484 191.988 50.7423 192.389 52.1842L205.931 100.934C206.257 102.107 207.325 102.918 208.542 102.917L208.542 102.917 208.542 200.417 235.625 200.417 235.625 102.917 235.625 102.917C236.841 102.916 237.908 102.106 238.233 100.934L251.775 52.1842C252.175 50.7439 251.333 49.2516 249.893 48.8503ZM224.792 195 224.792 146.25 219.375 146.25 219.375 195 213.959 195 213.959 98.6213C216.662 97.9207 219.44 97.5442 222.232 97.5001 224.926 97.5274 227.605 97.8914 230.209 98.5834L230.209 195Z" stroke="#C00000" stroke-width="2.70834" fill="#C00000" transform="matrix(1 0 0 1.00384 2405 1113)"/></g></g></g><path d="M3140.94 576.5 3140.94 905.583 3134.06 905.583 3134.06 576.5ZM3151.25 901 3137.5 928.5 3123.75 901Z" fill="#454551"/><text font-family="Avenir Next LT Pro,Avenir Next LT Pro_MSFontService,sans-serif" font-weight="700" font-size="55" transform="matrix(1 0 0 1 3234.28 2529)">Methods</text><text fill="#404040" font-family="Avenir Next LT Pro,Avenir Next LT Pro_MSFontService,sans-serif" font-weight="400" font-size="50" transform="matrix(1 0 0 1 3234.28 2614)">_</text><text fill="#404040" font-family="Avenir Next LT Pro,Avenir Next LT Pro_MSFontService,sans-serif" font-weight="400" font-size="50" transform="matrix(1 0 0 1 3259.48 2614)">validate_repr</text><text fill="#404040" font-family="Avenir Next LT Pro,Avenir Next LT Pro_MSFontService,sans-serif" font-weight="400" font-size="50" transform="matrix(1 0 0 1 3562.56 2614)">() </text><text fill="#404040" font-family="Avenir Next LT Pro,Avenir Next LT Pro_MSFontService,sans-serif" font-weight="400" font-size="50" transform="matrix(1 0 0 1 3234.28 2675)">fitness()</text><text fill="#404040" font-family="Avenir Next LT Pro,Avenir Next LT Pro_MSFontService,sans-serif" font-weight="400" font-size="50" transform="matrix(1 0 0 1 3234.28 2735)">random_initial_representation</text><text fill="#404040" font-family="Avenir Next LT Pro,Avenir Next LT Pro_MSFontService,sans-serif" font-weight="400" font-size="50" transform="matrix(1 0 0 1 3927.5 2735)">()</text><text fill="#D54773" font-family="Avenir Next LT Pro,Avenir Next LT Pro_MSFontService,sans-serif" font-weight="400" font-size="50" transform="matrix(1 0 0 1 3234.28 2796)">crossover(</text><text fill="#D54773" font-family="Avenir Next LT Pro,Avenir Next LT Pro_MSFontService,sans-serif" font-weight="400" font-size="50" transform="matrix(1 0 0 1 3470.89 2796)">other_solution</text><text fill="#D54773" font-family="Avenir Next LT Pro,Avenir Next LT Pro_MSFontService,sans-serif" font-weight="400" font-size="50" transform="matrix(1 0 0 1 3803.18 2796)">)</text><text fill="#D54773" font-family="Avenir Next LT Pro,Avenir Next LT Pro_MSFontService,sans-serif" font-weight="400" font-size="50" transform="matrix(1 0 0 1 3234.28 2856)">mutation(</text><text fill="#D54773" font-family="Avenir Next LT Pro,Avenir Next LT Pro_MSFontService,sans-serif" font-weight="400" font-size="50" transform="matrix(1 0 0 1 3454.85 2856)">mut_prob</text><text fill="#D54773" font-family="Avenir Next LT Pro,Avenir Next LT Pro_MSFontService,sans-serif" font-weight="400" font-size="50" transform="matrix(1 0 0 1 3683.44 2856)">)</text><text fill="#7F7F7F" font-family="Avenir Next LT Pro,Avenir Next LT Pro_MSFontService,sans-serif" font-weight="400" font-size="37" transform="matrix(1 0 0 1 2713.7 2598)">(Same as </text><text fill="#7F7F7F" font-family="Avenir Next LT Pro,Avenir Next LT Pro_MSFontService,sans-serif" font-weight="700" font-size="37" transform="matrix(1 0 0 1 2872.4 2598)">Superclasse</text><text fill="#7F7F7F" font-family="Avenir Next LT Pro,Avenir Next LT Pro_MSFontService,sans-serif" font-weight="400" font-size="37" transform="matrix(1 0 0 1 3082.66 2598)">)</text><text fill="#7F7F7F" font-family="Avenir Next LT Pro,Avenir Next LT Pro_MSFontService,sans-serif" font-weight="400" font-size="46" transform="matrix(1 0 0 1 2713.7 2651)">crossover_function</text><text fill="#7F7F7F" font-family="Avenir Next LT Pro,Avenir Next LT Pro_MSFontService,sans-serif" font-weight="400" font-size="46" transform="matrix(1 0 0 1 2713.7 2706)">mutation_function</text><text font-family="Avenir Next LT Pro,Avenir Next LT Pro_MSFontService,sans-serif" font-weight="700" font-size="83" transform="matrix(1 0 0 1 2392.67 2389)">Lineup Genetic Algorithm (GA) Solution</text><text font-family="Avenir Next LT Pro,Avenir Next LT Pro_MSFontService,sans-serif" font-weight="700" font-size="55" transform="matrix(1 0 0 1 2713.7 2535)">Properties</text><g><g><g><path d="M97.875 87C105.383 87 111.469 80.9138 111.469 73.4062 111.469 65.8987 105.383 59.8125 97.875 59.8125 90.3674 59.8125 84.2812 65.8987 84.2812 73.4062 84.2902 80.9102 90.3709 86.991 97.875 87ZM97.875 65.25C102.38 65.25 106.031 68.9015 106.031 73.4062 106.031 77.9109 102.38 81.5625 97.875 81.5625 93.3703 81.5625 89.7187 77.9109 89.7187 73.4062 89.7187 68.9015 93.3703 65.25 97.875 65.25Z" stroke="#D54773" stroke-width="2.71875" fill="#D54773" transform="matrix(1 0 0 1 2388 2461)"/><path d="M35.3437 87C42.8513 87 48.9375 80.9138 48.9375 73.4062 48.9375 65.8987 42.8513 59.8125 35.3437 59.8125 27.8362 59.8125 21.75 65.8987 21.75 73.4062 21.759 80.9102 27.8397 86.991 35.3437 87ZM35.3437 65.25C39.8484 65.25 43.5 68.9015 43.5 73.4062 43.5 77.9109 39.8484 81.5625 35.3437 81.5625 30.839 81.5625 27.1875 77.9109 27.1875 73.4062 27.1875 68.9015 30.839 65.25 35.3437 65.25Z" stroke="#D54773" stroke-width="2.71875" fill="#D54773" transform="matrix(1 0 0 1 2388 2461)"/><path d="M222.937 87C230.445 87 236.531 80.9138 236.531 73.4062 236.531 65.8987 230.445 59.8125 222.937 59.8125 215.43 59.8125 209.344 65.8987 209.344 73.4062 209.353 80.9102 215.433 86.991 222.937 87ZM222.937 65.25C227.442 65.25 231.094 68.9015 231.094 73.4062 231.094 77.9109 227.442 81.5625 222.937 81.5625 218.433 81.5625 214.781 77.9109 214.781 73.4062 214.781 68.9015 218.433 65.25 222.937 65.25Z" stroke="#D54773" stroke-width="2.71875" fill="#D54773" transform="matrix(1 0 0 1 2388 2461)"/><path d="M160.406 87C167.914 87 174 80.9138 174 73.4062 174 65.8987 167.914 59.8125 160.406 59.8125 152.899 59.8125 146.812 65.8987 146.812 73.4062 146.821 80.9102 152.902 86.991 160.406 87ZM160.406 65.25C164.911 65.25 168.562 68.9015 168.562 73.4062 168.562 77.9109 164.911 81.5625 160.406 81.5625 155.902 81.5625 152.25 77.9109 152.25 73.4062 152.25 68.9015 155.902 65.25 160.406 65.25Z" stroke="#D54773" stroke-width="2.71875" fill="#D54773" transform="matrix(1 0 0 1 2388 2461)"/><path d="M63.2599 49.0381C61.8129 48.6365 60.3146 49.484 59.9131 50.9309 59.9123 50.9344 59.9112 50.9377 59.9104 50.9412L47.7983 94.5336 47.0153 94.2944C43.289 93.1028 39.4053 92.4769 35.4933 92.4375 31.504 92.5033 27.5431 93.1218 23.7238 94.2753L22.8837 94.5119 10.7771 50.9276C10.3747 49.4801 8.87508 48.633 7.42762 49.0354 5.98016 49.4377 5.13297 50.9374 5.53537 52.3849L19.1291 101.322C19.4565 102.499 20.5285 103.313 21.75 103.312L21.75 114.187 21.75 128.534 11.378 165.89 21.75 165.89 21.75 201.187 48.9375 201.187 48.9375 165.89 59.3095 165.89 48.9375 128.532 48.9375 103.312 48.9375 103.312C50.1579 103.312 51.2286 102.498 51.5556 101.322L65.1494 52.3849C65.5512 50.939 64.7054 49.441 63.2599 49.0381ZM27.1875 165.89 32.625 165.89 32.625 195.75 27.1875 195.75ZM43.5 195.75 38.0625 195.75 38.0625 165.89 43.5 165.89ZM52.1592 160.452 18.5283 160.452 27.1875 129.271 27.1875 114.187 27.1875 98.9842C32.5238 97.5123 38.1574 97.5 43.5 98.9489L43.5 128.904Z" stroke="#D54773" stroke-width="2.71875" fill="#D54773" transform="matrix(1 0 0 1 2388 2461)"/><path d="M125.791 49.0381C124.344 48.6365 122.846 49.484 122.444 50.9309 122.443 50.9344 122.442 50.9377 122.442 50.9412L110.283 94.7131C110.061 94.541 109.812 94.4058 109.547 94.3134 105.821 93.1152 101.937 92.4829 98.0245 92.4375 94.0353 92.5033 90.0743 93.1218 86.255 94.2753 85.9698 94.3667 85.7015 94.5045 85.4612 94.6832L73.3083 50.9276C72.906 49.4801 71.4063 48.633 69.9589 49.0354 68.5114 49.4377 67.6642 50.9374 68.0666 52.3849L81.6603 101.322C81.9877 102.499 83.0597 103.313 84.2812 103.312L84.2812 103.312 84.2812 201.187 111.469 201.187 111.469 103.312 111.469 103.312C112.689 103.312 113.76 102.498 114.087 101.322L127.681 52.3849C128.082 50.939 127.237 49.441 125.791 49.0381ZM100.594 195.75 100.594 146.812 95.1562 146.812 95.1562 195.75 89.7187 195.75 89.7187 99.0005C92.4328 98.2972 95.2209 97.9193 98.0245 97.875 100.728 97.9024 103.418 98.2678 106.031 98.9625L106.031 195.75Z" stroke="#D54773" stroke-width="2.71875" fill="#D54773" transform="matrix(1 0 0 1 2388 2461)"/><path d="M188.322 49.0381C186.875 48.6365 185.377 49.484 184.976 50.9309 184.975 50.9344 184.974 50.9377 184.973 50.9412L172.815 94.7131C172.592 94.541 172.343 94.4058 172.078 94.3134 168.353 93.1152 164.469 92.4829 160.556 92.4375 156.566 92.5033 152.606 93.1218 148.786 94.2753 148.501 94.3667 148.233 94.5045 147.992 94.6832L135.84 50.9276C135.437 49.4801 133.938 48.633 132.49 49.0354 131.043 49.4377 130.195 50.9374 130.598 52.3849L144.192 101.322C144.519 102.499 145.591 103.313 146.812 103.312L146.812 128.532 136.44 165.89 146.812 165.89 146.812 201.187 174 201.187 174 165.89 184.372 165.89 174 128.532 174 103.312 174 103.312C175.22 103.312 176.291 102.498 176.618 101.322L190.212 52.3849C190.614 50.939 189.768 49.441 188.322 49.0381ZM152.25 165.89 157.687 165.89 157.687 195.75 152.25 195.75ZM168.562 195.75 163.125 195.75 163.125 165.89 168.562 165.89ZM177.222 160.452 143.591 160.452 152.25 129.274 152.25 99.0033C154.964 98.2999 157.752 97.9212 160.556 97.875 163.26 97.9019 165.949 98.2673 168.562 98.9625L168.562 128.901Z" stroke="#D54773" stroke-width="2.71875" fill="#D54773" transform="matrix(1 0 0 1 2388 2461)"/><path d="M250.854 49.0381C249.407 48.6365 247.908 49.484 247.507 50.9309 247.506 50.9344 247.505 50.9377 247.504 50.9412L235.346 94.7131C235.123 94.541 234.875 94.4058 234.609 94.3134 230.884 93.1152 227 92.4829 223.087 92.4375 219.098 92.5033 215.137 93.1218 211.317 94.2753 211.032 94.3667 210.764 94.5045 210.524 94.6832L198.371 50.9276C197.968 49.4801 196.469 48.633 195.021 49.0354 193.574 49.4377 192.727 50.9374 193.129 52.3849L206.723 101.322C207.05 102.499 208.122 103.313 209.344 103.312L209.344 103.312 209.344 201.187 236.531 201.187 236.531 103.312 236.531 103.312C237.752 103.312 238.822 102.498 239.149 101.322L252.743 52.3849C253.145 50.939 252.299 49.441 250.854 49.0381ZM225.656 195.75 225.656 146.812 220.219 146.812 220.219 195.75 214.781 195.75 214.781 99.0005C217.495 98.2972 220.283 97.9193 223.087 97.875 225.791 97.9024 228.48 98.2678 231.094 98.9625L231.094 195.75Z" stroke="#D54773" stroke-width="2.71875" fill="#D54773" transform="matrix(1 0 0 1 2388 2461)"/></g></g></g><g><g><g><path d="M2518.5 2875.31C2549.49 2875.31 2565.81 2854.65 2578.31 2832.63 2591.09 2854.65 2607.13 2875.31 2638.12 2875.31L2638.12 2859C2633.23 2859 2628.61 2858.18 2624.53 2856.82L2624.53 2774.18C2628.61 2772.82 2633.23 2772 2638.12 2772L2638.12 2755.69C2607.13 2755.69 2591.09 2776.35 2578.31 2798.37 2565.81 2776.35 2549.49 2755.69 2518.5 2755.69 2487.23 2755.69 2470.92 2776.35 2458.42 2798.37 2445.91 2776.35 2429.87 2755.69 2398.88 2755.69L2398.88 2772C2404.04 2772 2408.39 2772.82 2412.47 2774.18L2412.47 2856.82C2408.39 2858.18 2404.04 2859 2398.88 2859L2398.88 2875.31C2429.87 2875.31 2445.91 2854.65 2458.42 2832.63 2470.92 2854.65 2487.23 2875.31 2518.5 2875.31ZM2518.5 2772C2523.39 2772 2528.02 2772.82 2532.09 2774.18L2532.09 2857.1C2528.02 2858.46 2523.39 2859.27 2518.5 2859.27 2513.61 2859.27 2508.98 2858.46 2504.91 2857.1L2504.91 2774.18C2508.98 2772.82 2513.61 2772 2518.5 2772ZM2608.22 2784.51 2608.22 2846.22C2600.33 2838.34 2594.08 2827.19 2587.56 2815.23 2594.08 2803.54 2600.33 2792.39 2608.22 2784.51ZM2569.07 2815.5C2562.54 2827.46 2556.29 2838.61 2548.41 2846.49L2548.41 2784.51C2556.29 2792.39 2562.82 2803.54 2569.07 2815.5ZM2449.17 2815.5C2442.92 2827.46 2436.67 2838.34 2428.78 2846.22L2428.78 2784.78C2436.67 2792.66 2442.92 2803.54 2449.17 2815.5ZM2467.66 2815.5C2474.18 2803.27 2480.44 2792.12 2488.59 2784.23L2488.59 2846.77C2480.44 2838.88 2474.18 2827.73 2467.66 2815.5Z" stroke="#FFFFFF" stroke-width="2.71875" fill="#D54773"/></g></g></g><text font-family="Avenir Next LT Pro,Avenir Next LT Pro_MSFontService,sans-serif" font-weight="700" font-size="55" transform="matrix(1 0 0 1 5364 1873)">Methods</text><text fill="#404040" font-family="Avenir Next LT Pro,Avenir Next LT Pro_MSFontService,sans-serif" font-weight="400" font-size="50" transform="matrix(1 0 0 1 5364 1958)">_</text><text fill="#404040" font-family="Avenir Next LT Pro,Avenir Next LT Pro_MSFontService,sans-serif" font-weight="400" font-size="50" transform="matrix(1 0 0 1 5389.21 1958)">validate_repr</text><text fill="#404040" font-family="Avenir Next LT Pro,Avenir Next LT Pro_MSFontService,sans-serif" font-weight="400" font-size="50" transform="matrix(1 0 0 1 5692.28 1958)">() </text><text fill="#404040" font-family="Avenir Next LT Pro,Avenir Next LT Pro_MSFontService,sans-serif" font-weight="400" font-size="50" transform="matrix(1 0 0 1 5364 2018)">fitness()</text><text fill="#404040" font-family="Avenir Next LT Pro,Avenir Next LT Pro_MSFontService,sans-serif" font-weight="400" font-size="50" transform="matrix(1 0 0 1 5364 2079)">random_initial_representation</text><text fill="#404040" font-family="Avenir Next LT Pro,Avenir Next LT Pro_MSFontService,sans-serif" font-weight="400" font-size="50" transform="matrix(1 0 0 1 6057.23 2079)">()</text><text fill="#8971E1" font-family="Avenir Next LT Pro,Avenir Next LT Pro_MSFontService,sans-serif" font-weight="400" font-size="50" transform="matrix(1 0 0 1 5364 2139)">get_neighbors</text><text fill="#8971E1" font-family="Avenir Next LT Pro,Avenir Next LT Pro_MSFontService,sans-serif" font-weight="400" font-size="50" transform="matrix(1 0 0 1 5701.45 2139)">()</text><text fill="#7F7F7F" font-family="Avenir Next LT Pro,Avenir Next LT Pro_MSFontService,sans-serif" font-weight="400" font-size="37" transform="matrix(1 0 0 1 4843.42 1942)">(Same as </text><text fill="#7F7F7F" font-family="Avenir Next LT Pro,Avenir Next LT Pro_MSFontService,sans-serif" font-weight="700" font-size="37" transform="matrix(1 0 0 1 5002.12 1942)">Superclasse</text><text fill="#7F7F7F" font-family="Avenir Next LT Pro,Avenir Next LT Pro_MSFontService,sans-serif" font-weight="400" font-size="37" transform="matrix(1 0 0 1 5212.38 1942)">)</text><text font-family="Avenir Next LT Pro,Avenir Next LT Pro_MSFontService,sans-serif" font-weight="700" font-size="83" transform="matrix(1 0 0 1 4522.39 1732)">Lineup Genetic Algorithm (GA) Solution</text><text font-family="Avenir Next LT Pro,Avenir Next LT Pro_MSFontService,sans-serif" font-weight="700" font-size="55" transform="matrix(1 0 0 1 4843.42 1878)">Properties</text><g><g><g><path d="M97.5 86.6666C104.979 86.6666 111.042 80.6038 111.042 73.125 111.042 65.6462 104.979 59.5833 97.5 59.5833 90.0212 59.5833 83.9583 65.6462 83.9583 73.125 83.9672 80.6002 90.0247 86.6577 97.5 86.6666ZM97.5 65C101.987 65 105.625 68.6375 105.625 73.125 105.625 77.6124 101.987 81.25 97.5 81.25 93.0125 81.25 89.375 77.6124 89.375 73.125 89.375 68.6375 93.0125 65 97.5 65Z" stroke="#8971E1" stroke-width="2.70833" fill="#8971E1" transform="matrix(1.00385 0 0 1 4518 1805)"/><path d="M35.2083 86.6666C42.6871 86.6666 48.75 80.6038 48.75 73.125 48.75 65.6462 42.6871 59.5833 35.2083 59.5833 27.7295 59.5833 21.6667 65.6462 21.6667 73.125 21.6756 80.6002 27.733 86.6577 35.2083 86.6666ZM35.2083 65C39.6958 65 43.3333 68.6375 43.3333 73.125 43.3333 77.6124 39.6958 81.25 35.2083 81.25 30.7209 81.25 27.0833 77.6124 27.0833 73.125 27.0833 68.6375 30.7209 65 35.2083 65Z" stroke="#8971E1" stroke-width="2.70833" fill="#8971E1" transform="matrix(1.00385 0 0 1 4518 1805)"/><path d="M222.083 86.6666C229.562 86.6666 235.625 80.6038 235.625 73.125 235.625 65.6462 229.562 59.5833 222.083 59.5833 214.604 59.5833 208.542 65.6462 208.542 73.125 208.551 80.6002 214.608 86.6577 222.083 86.6666ZM222.083 65C226.571 65 230.208 68.6375 230.208 73.125 230.208 77.6124 226.571 81.25 222.083 81.25 217.596 81.25 213.958 77.6124 213.958 73.125 213.958 68.6375 217.596 65 222.083 65Z" stroke="#8971E1" stroke-width="2.70833" fill="#8971E1" transform="matrix(1.00385 0 0 1 4518 1805)"/><path d="M159.792 86.6666C167.27 86.6666 173.333 80.6038 173.333 73.125 173.333 65.6462 167.27 59.5833 159.792 59.5833 152.313 59.5833 146.25 65.6462 146.25 73.125 146.259 80.6002 152.316 86.6577 159.792 86.6666ZM159.792 65C164.279 65 167.917 68.6375 167.917 73.125 167.917 77.6124 164.279 81.25 159.792 81.25 155.304 81.25 151.667 77.6124 151.667 73.125 151.667 68.6375 155.304 65 159.792 65Z" stroke="#8971E1" stroke-width="2.70833" fill="#8971E1" transform="matrix(1.00385 0 0 1 4518 1805)"/><path d="M63.0175 48.8502C61.5761 48.4502 60.0835 49.2944 59.6835 50.7357 59.6827 50.7393 59.6816 50.7425 59.6808 50.746L47.6152 94.1714 46.8352 93.9331C43.1231 92.746 39.2543 92.1226 35.3573 92.0833 31.3833 92.1488 27.4376 92.765 23.6329 93.9141L22.796 94.1497 10.7358 50.7325C10.335 49.2906 8.84108 48.4466 7.39916 48.8475 5.95725 49.2483 5.1133 50.7422 5.51416 52.1841L19.0558 100.934C19.3819 102.107 20.4498 102.917 21.6667 102.917L21.6667 113.75 21.6667 128.042 11.3344 165.254 21.6667 165.254 21.6667 200.417 48.75 200.417 48.75 165.254 59.0823 165.254 48.75 128.039 48.75 102.917 48.75 102.917C49.9657 102.916 51.0323 102.105 51.3581 100.934L64.8998 52.1841C65.3 50.7439 64.4575 49.2516 63.0175 48.8502ZM27.0833 165.254 32.5 165.254 32.5 195 27.0833 195ZM43.3333 195 37.9166 195 37.9166 165.254 43.3333 165.254ZM51.9594 159.838 18.4573 159.838 27.0833 128.776 27.0833 113.75 27.0833 98.605C32.3992 97.1387 38.0112 97.1265 43.3333 98.5697L43.3333 128.41Z" stroke="#8971E1" stroke-width="2.70833" fill="#8971E1" transform="matrix(1.00385 0 0 1 4518 1805)"/><path d="M125.309 48.8502C123.868 48.4502 122.375 49.2944 121.975 50.7357 121.974 50.7393 121.973 50.7425 121.972 50.746L109.861 94.3502C109.639 94.1787 109.391 94.0441 109.127 93.952 105.416 92.7585 101.547 92.1285 97.6489 92.0833 93.675 92.1488 89.7292 92.765 85.9245 93.9141 85.6404 94.0051 85.3731 94.1424 85.1337 94.3204L73.0275 50.7325C72.6266 49.2906 71.1327 48.4466 69.6908 48.8475 68.2489 49.2483 67.405 50.7422 67.8058 52.1841L81.3475 100.934C81.6735 102.107 82.7414 102.917 83.9583 102.917L83.9583 102.917 83.9583 200.417 111.042 200.417 111.042 102.917 111.042 102.917C112.257 102.916 113.324 102.105 113.65 100.934L127.191 52.1841C127.592 50.7439 126.749 49.2516 125.309 48.8502ZM100.208 195 100.208 146.25 94.7916 146.25 94.7916 195 89.375 195 89.375 98.6212C92.0787 97.9206 94.8561 97.5441 97.6489 97.5 100.342 97.5273 103.022 97.8913 105.625 98.5833L105.625 195Z" stroke="#8971E1" stroke-width="2.70833" fill="#8971E1" transform="matrix(1.00385 0 0 1 4518 1805)"/><path d="M187.601 48.8502C186.159 48.4502 184.667 49.2944 184.267 50.7357 184.266 50.7393 184.265 50.7425 184.264 50.746L172.152 94.3502C171.931 94.1787 171.683 94.0441 171.418 93.952 167.708 92.7585 163.838 92.1285 159.941 92.0833 155.967 92.1488 152.021 92.765 148.216 93.9141 147.932 94.0051 147.665 94.1424 147.425 94.3204L135.319 50.7325C134.918 49.2906 133.424 48.4466 131.982 48.8475 130.541 49.2483 129.697 50.7422 130.097 52.1841L143.639 100.934C143.965 102.107 145.033 102.917 146.25 102.917L146.25 128.039 135.918 165.254 146.25 165.254 146.25 200.417 173.333 200.417 173.333 165.254 183.666 165.254 173.333 128.039 173.333 102.917 173.333 102.917C174.549 102.916 175.616 102.105 175.941 100.934L189.483 52.1841C189.883 50.7439 189.041 49.2516 187.601 48.8502ZM151.667 165.254 157.083 165.254 157.083 195 151.667 195ZM167.917 195 162.5 195 162.5 165.254 167.917 165.254ZM176.543 159.838 143.041 159.838 151.667 128.778 151.667 98.6239C154.37 97.9233 157.148 97.546 159.941 97.5 162.634 97.5268 165.314 97.8908 167.917 98.5833L167.917 128.407Z" stroke="#8971E1" stroke-width="2.70833" fill="#8971E1" transform="matrix(1.00385 0 0 1 4518 1805)"/><path d="M249.892 48.8502C248.451 48.4502 246.958 49.2944 246.558 50.7357 246.558 50.7393 246.557 50.7425 246.556 50.746L234.444 94.3502C234.223 94.1787 233.975 94.0441 233.71 93.952 229.999 92.7585 226.13 92.1285 222.232 92.0833 218.258 92.1488 214.312 92.765 210.508 93.9141 210.224 94.0051 209.956 94.1424 209.717 94.3204L197.611 50.7325C197.21 49.2906 195.716 48.4466 194.274 48.8475 192.832 49.2483 191.988 50.7422 192.389 52.1841L205.931 100.934C206.257 102.107 207.325 102.917 208.542 102.917L208.542 102.917 208.542 200.417 235.625 200.417 235.625 102.917 235.625 102.917C236.841 102.916 237.907 102.105 238.233 100.934L251.775 52.1841C252.175 50.7439 251.332 49.2516 249.892 48.8502ZM224.792 195 224.792 146.25 219.375 146.25 219.375 195 213.958 195 213.958 98.6212C216.662 97.9206 219.439 97.5441 222.232 97.5 224.926 97.5273 227.605 97.8913 230.208 98.5833L230.208 195Z" stroke="#8971E1" stroke-width="2.70833" fill="#8971E1" transform="matrix(1.00385 0 0 1 4518 1805)"/></g></g></g><g><g><g><path d="M54.1666 116.458C54.1666 126.929 45.6787 135.417 35.2083 135.417 24.7379 135.417 16.25 126.929 16.25 116.458 16.25 105.988 24.7379 97.5 35.2083 97.5 45.6787 97.5 54.1666 105.988 54.1666 116.458Z" stroke="#FFFFFF" stroke-width="2.70833" fill="#8971E1" transform="matrix(6.12323e-17 1 -1.00385 6.14679e-17 4779 2029)"/><path d="M32.5 18.9583C29.1904 22.6381 28.152 27.8303 29.7917 32.5 32.2291 39.7583 37.9166 40.625 43.3333 43.3333 48.75 46.0416 57.2271 40.0021 62.2916 43.3333 69.5229 48.0729 67.8979 56.5771 75.8333 62.2916 86.45 69.8046 98.2629 75.4639 110.771 79.0291 107.942 79.1239 105.367 80.6834 103.973 83.1458L92.0833 104.379 78.5416 115.51 78.5416 74.0187C78.5416 69.5313 74.9041 65.8937 70.4166 65.8937 65.9292 65.8937 62.2916 69.5313 62.2916 74.0187L62.2916 122.579 56.875 128.402 56.225 129.052C56.0625 129.215 55.9541 129.404 55.7916 129.567L55.5208 130 55.5208 130C49.3442 137.839 50.3035 149.126 57.7146 155.81L89.375 184.167C90.3199 184.993 91.3347 185.736 92.4083 186.387L90.377 189.096C83.877 188.906 72.8812 193.564 74.1271 197.817L78.1083 210.356C79.9107 216.063 85.9977 219.227 91.7041 217.425 97.4106 215.623 100.575 209.536 98.7729 203.829L94.9812 191.885 97.0125 189.177C97.8648 189.634 98.7761 189.971 99.7208 190.179L142.296 199.035 169.867 224.927C174.227 229.025 181.084 228.813 185.182 224.453 189.281 220.093 189.068 213.236 184.708 209.137L154.917 181.16C153.473 179.786 151.67 178.847 149.717 178.452L121.117 172.494 140.996 146.846 178.317 151.667C184.255 152.414 189.675 148.207 190.423 142.269 191.171 136.33 186.963 130.91 181.025 130.162L137.692 124.746C133.892 124.27 130.123 125.835 127.779 128.862L109.931 151.667 86.0979 130.217 103.567 115.862C104.376 115.29 105.074 114.574 105.625 113.75L118.273 91.1625C120.25 87.5869 119.264 83.0992 115.971 80.6812 119.519 81.7645 123.31 82.8479 127.427 84.0395 151.017 90.7833 170.462 89.6458 181.594 105.706 185.223 110.933 195.46 120.06 195.135 138.667 194.946 150.773 186.496 152.94 189.719 159.873 193.348 167.537 203.964 172.548 214.094 181.539 224.223 190.531 227.852 205.914 227.635 216.748 227.473 224.873 224.927 232.998 230.344 238.414 234.073 241.768 238.872 243.688 243.885 243.831L243.885 18.9583Z" stroke="#FFFFFF" stroke-width="2.70833" fill="#8971E1" transform="matrix(6.12323e-17 1 -1.00385 6.14679e-17 4779 2029)"/></g></g></g><text font-family="Avenir Next LT Pro,Avenir Next LT Pro_MSFontService,sans-serif" font-weight="700" font-size="55" transform="matrix(1 0 0 1 1221.15 1873)">Methods</text><text fill="#404040" font-family="Avenir Next LT Pro,Avenir Next LT Pro_MSFontService,sans-serif" font-weight="400" font-size="50" transform="matrix(1 0 0 1 1221.15 1958)">_</text><text fill="#404040" font-family="Avenir Next LT Pro,Avenir Next LT Pro_MSFontService,sans-serif" font-weight="400" font-size="50" transform="matrix(1 0 0 1 1246.35 1958)">validate_repr</text><text fill="#404040" font-family="Avenir Next LT Pro,Avenir Next LT Pro_MSFontService,sans-serif" font-weight="400" font-size="50" transform="matrix(1 0 0 1 1549.43 1958)">() </text><text fill="#404040" font-family="Avenir Next LT Pro,Avenir Next LT Pro_MSFontService,sans-serif" font-weight="400" font-size="50" transform="matrix(1 0 0 1 1221.15 2018)">fitness()</text><text fill="#404040" font-family="Avenir Next LT Pro,Avenir Next LT Pro_MSFontService,sans-serif" font-weight="400" font-size="50" transform="matrix(1 0 0 1 1221.15 2079)">random_initial_representation</text><text fill="#404040" font-family="Avenir Next LT Pro,Avenir Next LT Pro_MSFontService,sans-serif" font-weight="400" font-size="50" transform="matrix(1 0 0 1 1914.38 2079)">()</text><text fill="#C830CC" font-family="Avenir Next LT Pro,Avenir Next LT Pro_MSFontService,sans-serif" font-weight="400" font-size="50" transform="matrix(1 0 0 1 1221.15 2139)">get_random_neighbor</text><text fill="#C830CC" font-family="Avenir Next LT Pro,Avenir Next LT Pro_MSFontService,sans-serif" font-weight="400" font-size="50" transform="matrix(1 0 0 1 1743.65 2139)">()</text><text fill="#7F7F7F" font-family="Avenir Next LT Pro,Avenir Next LT Pro_MSFontService,sans-serif" font-weight="400" font-size="37" transform="matrix(1 0 0 1 700.572 1942)">(Same as </text><text fill="#7F7F7F" font-family="Avenir Next LT Pro,Avenir Next LT Pro_MSFontService,sans-serif" font-weight="700" font-size="37" transform="matrix(1 0 0 1 859.27 1942)">Superclasse</text><text fill="#7F7F7F" font-family="Avenir Next LT Pro,Avenir Next LT Pro_MSFontService,sans-serif" font-weight="400" font-size="37" transform="matrix(1 0 0 1 1069.53 1942)">)</text><text font-family="Avenir Next LT Pro,Avenir Next LT Pro_MSFontService,sans-serif" font-weight="700" font-size="83" transform="matrix(1 0 0 1 336.929 1732)">Lineup Simulated Annealing (SA) Solution</text><text font-family="Avenir Next LT Pro,Avenir Next LT Pro_MSFontService,sans-serif" font-weight="700" font-size="55" transform="matrix(1 0 0 1 700.571 1878)">Properties</text><g><g><g><path d="M97.5 86.6666C104.979 86.6666 111.042 80.6038 111.042 73.125 111.042 65.6462 104.979 59.5833 97.5 59.5833 90.0212 59.5833 83.9583 65.6462 83.9583 73.125 83.9672 80.6002 90.0247 86.6577 97.5 86.6666ZM97.5 65C101.987 65 105.625 68.6375 105.625 73.125 105.625 77.6124 101.987 81.25 97.5 81.25 93.0125 81.25 89.375 77.6124 89.375 73.125 89.375 68.6375 93.0125 65 97.5 65Z" stroke="#C830CC" stroke-width="2.70833" fill="#C830CC" transform="matrix(1.00385 0 0 1 375 1805)"/><path d="M35.2083 86.6666C42.6871 86.6666 48.75 80.6038 48.75 73.125 48.75 65.6462 42.6871 59.5833 35.2083 59.5833 27.7295 59.5833 21.6667 65.6462 21.6667 73.125 21.6756 80.6002 27.733 86.6577 35.2083 86.6666ZM35.2083 65C39.6958 65 43.3333 68.6375 43.3333 73.125 43.3333 77.6124 39.6958 81.25 35.2083 81.25 30.7209 81.25 27.0833 77.6124 27.0833 73.125 27.0833 68.6375 30.7209 65 35.2083 65Z" stroke="#C830CC" stroke-width="2.70833" fill="#C830CC" transform="matrix(1.00385 0 0 1 375 1805)"/><path d="M222.083 86.6666C229.562 86.6666 235.625 80.6038 235.625 73.125 235.625 65.6462 229.562 59.5833 222.083 59.5833 214.604 59.5833 208.542 65.6462 208.542 73.125 208.551 80.6002 214.608 86.6577 222.083 86.6666ZM222.083 65C226.571 65 230.208 68.6375 230.208 73.125 230.208 77.6124 226.571 81.25 222.083 81.25 217.596 81.25 213.958 77.6124 213.958 73.125 213.958 68.6375 217.596 65 222.083 65Z" stroke="#C830CC" stroke-width="2.70833" fill="#C830CC" transform="matrix(1.00385 0 0 1 375 1805)"/><path d="M159.792 86.6666C167.27 86.6666 173.333 80.6038 173.333 73.125 173.333 65.6462 167.27 59.5833 159.792 59.5833 152.313 59.5833 146.25 65.6462 146.25 73.125 146.259 80.6002 152.316 86.6577 159.792 86.6666ZM159.792 65C164.279 65 167.917 68.6375 167.917 73.125 167.917 77.6124 164.279 81.25 159.792 81.25 155.304 81.25 151.667 77.6124 151.667 73.125 151.667 68.6375 155.304 65 159.792 65Z" stroke="#C830CC" stroke-width="2.70833" fill="#C830CC" transform="matrix(1.00385 0 0 1 375 1805)"/><path d="M63.0175 48.8502C61.5761 48.4502 60.0835 49.2944 59.6835 50.7357 59.6827 50.7393 59.6816 50.7425 59.6808 50.746L47.6152 94.1714 46.8352 93.9331C43.1231 92.746 39.2543 92.1226 35.3573 92.0833 31.3833 92.1488 27.4376 92.765 23.6329 93.9141L22.796 94.1497 10.7358 50.7325C10.335 49.2906 8.84108 48.4466 7.39916 48.8475 5.95725 49.2483 5.1133 50.7422 5.51416 52.1841L19.0558 100.934C19.3819 102.107 20.4498 102.917 21.6667 102.917L21.6667 113.75 21.6667 128.042 11.3344 165.254 21.6667 165.254 21.6667 200.417 48.75 200.417 48.75 165.254 59.0823 165.254 48.75 128.039 48.75 102.917 48.75 102.917C49.9657 102.916 51.0323 102.105 51.3581 100.934L64.8998 52.1841C65.3 50.7439 64.4575 49.2516 63.0175 48.8502ZM27.0833 165.254 32.5 165.254 32.5 195 27.0833 195ZM43.3333 195 37.9166 195 37.9166 165.254 43.3333 165.254ZM51.9594 159.838 18.4573 159.838 27.0833 128.776 27.0833 113.75 27.0833 98.605C32.3992 97.1387 38.0112 97.1265 43.3333 98.5697L43.3333 128.41Z" stroke="#C830CC" stroke-width="2.70833" fill="#C830CC" transform="matrix(1.00385 0 0 1 375 1805)"/><path d="M125.309 48.8502C123.868 48.4502 122.375 49.2944 121.975 50.7357 121.974 50.7393 121.973 50.7425 121.972 50.746L109.861 94.3502C109.639 94.1787 109.391 94.0441 109.127 93.952 105.416 92.7585 101.547 92.1285 97.6489 92.0833 93.675 92.1488 89.7292 92.765 85.9245 93.9141 85.6404 94.0051 85.3731 94.1424 85.1337 94.3204L73.0275 50.7325C72.6266 49.2906 71.1327 48.4466 69.6908 48.8475 68.2489 49.2483 67.405 50.7422 67.8058 52.1841L81.3475 100.934C81.6735 102.107 82.7414 102.917 83.9583 102.917L83.9583 102.917 83.9583 200.417 111.042 200.417 111.042 102.917 111.042 102.917C112.257 102.916 113.324 102.105 113.65 100.934L127.191 52.1841C127.592 50.7439 126.749 49.2516 125.309 48.8502ZM100.208 195 100.208 146.25 94.7916 146.25 94.7916 195 89.375 195 89.375 98.6212C92.0787 97.9206 94.8561 97.5441 97.6489 97.5 100.342 97.5273 103.022 97.8913 105.625 98.5833L105.625 195Z" stroke="#C830CC" stroke-width="2.70833" fill="#C830CC" transform="matrix(1.00385 0 0 1 375 1805)"/><path d="M187.601 48.8502C186.159 48.4502 184.667 49.2944 184.267 50.7357 184.266 50.7393 184.265 50.7425 184.264 50.746L172.152 94.3502C171.931 94.1787 171.683 94.0441 171.418 93.952 167.708 92.7585 163.838 92.1285 159.941 92.0833 155.967 92.1488 152.021 92.765 148.216 93.9141 147.932 94.0051 147.665 94.1424 147.425 94.3204L135.319 50.7325C134.918 49.2906 133.424 48.4466 131.982 48.8475 130.541 49.2483 129.697 50.7422 130.097 52.1841L143.639 100.934C143.965 102.107 145.033 102.917 146.25 102.917L146.25 128.039 135.918 165.254 146.25 165.254 146.25 200.417 173.333 200.417 173.333 165.254 183.666 165.254 173.333 128.039 173.333 102.917 173.333 102.917C174.549 102.916 175.616 102.105 175.941 100.934L189.483 52.1841C189.883 50.7439 189.041 49.2516 187.601 48.8502ZM151.667 165.254 157.083 165.254 157.083 195 151.667 195ZM167.917 195 162.5 195 162.5 165.254 167.917 165.254ZM176.543 159.838 143.041 159.838 151.667 128.778 151.667 98.6239C154.37 97.9233 157.148 97.546 159.941 97.5 162.634 97.5268 165.314 97.8908 167.917 98.5833L167.917 128.407Z" stroke="#C830CC" stroke-width="2.70833" fill="#C830CC" transform="matrix(1.00385 0 0 1 375 1805)"/><path d="M249.892 48.8502C248.451 48.4502 246.958 49.2944 246.558 50.7357 246.558 50.7393 246.557 50.7425 246.556 50.746L234.444 94.3502C234.223 94.1787 233.975 94.0441 233.71 93.952 229.999 92.7585 226.13 92.1285 222.232 92.0833 218.258 92.1488 214.312 92.765 210.508 93.9141 210.224 94.0051 209.956 94.1424 209.717 94.3204L197.611 50.7325C197.21 49.2906 195.716 48.4466 194.274 48.8475 192.832 49.2483 191.988 50.7422 192.389 52.1841L205.931 100.934C206.257 102.107 207.325 102.917 208.542 102.917L208.542 102.917 208.542 200.417 235.625 200.417 235.625 102.917 235.625 102.917C236.841 102.916 237.907 102.105 238.233 100.934L251.775 52.1841C252.175 50.7439 251.332 49.2516 249.892 48.8502ZM224.792 195 224.792 146.25 219.375 146.25 219.375 195 213.958 195 213.958 98.6212C216.662 97.9206 219.439 97.5441 222.232 97.5 224.926 97.5273 227.605 97.8913 230.208 98.5833L230.208 195Z" stroke="#C830CC" stroke-width="2.70833" fill="#C830CC" transform="matrix(1.00385 0 0 1 375 1805)"/></g></g></g><g><g><g><path d="M130 233.729C112.396 233.729 96.9583 221.271 93.1666 204.208 89.1041 186.875 97.7708 169.271 113.75 161.687L113.75 42.5208C113.75 33.5833 121.062 26.2708 130 26.2708 138.937 26.2708 146.25 33.5833 146.25 42.5208L146.25 161.687C162.229 169.271 170.625 186.875 166.833 204.208 162.771 221.271 147.604 233.458 130 233.729L130 233.729ZM162.5 152.479 162.5 42.5208C162.5 24.6458 147.875 10.0208 130 10.0208 112.125 10.0208 97.5 24.375 97.5 42.5208L97.5 152.479C78.8125 166.562 71.2291 190.937 78.5416 212.875 85.8541 235.083 106.708 249.979 130 249.979 153.292 249.979 174.146 235.083 181.458 212.875 188.771 190.937 181.187 166.562 162.5 152.479Z" stroke="#FFFFFF" stroke-width="2.70833" fill="#C830CC" transform="matrix(1.00385 0 0 1 375 2029)"/><path d="M135.417 169.271 135.417 103.729 124.583 103.729 124.583 169.271C111.042 171.979 101.562 184.708 103.187 198.521 104.542 212.333 116.187 222.896 130 222.896 143.812 222.896 155.458 212.333 156.812 198.521 158.437 184.708 148.958 171.979 135.417 169.271Z" stroke="#FFFFFF" stroke-width="2.70833" fill="#C830CC" transform="matrix(1.00385 0 0 1 375 2029)"/></g></g></g><text fill="#454551" font-family="Avenir Next LT Pro,Avenir Next LT Pro_MSFontService,sans-serif" font-weight="700" font-size="64" transform="matrix(1 0 0 1 3180.71 2014)">Inheritance</text><path d="M3140.94 1825.5 3140.94 2154.58 3134.06 2154.58 3134.06 1825.5ZM3151.25 2150 3137.5 2177.5 3123.75 2150Z" fill="#454551"/><path d="M4069.47 1555.68 4376.42 1770.54 4372.48 1776.17 4065.53 1561.32ZM4378.58 1759.46 4393.22 1786.5 4362.81 1781.99Z" fill="#454551"/><path d="M2326.31 1562.47 2111.46 1869.42 2105.83 1865.48 2320.68 1558.53ZM2122.53 1871.58 2095.5 1886.22 2100.01 1855.81Z" fill="#454551"/><text fill="#454551" font-family="Avenir Next LT Pro,Avenir Next LT Pro_MSFontService,sans-serif" font-weight="700" font-size="64" transform="matrix(1 0 0 1 2228.45 1800)">Inheritance</text><text fill="#454551" font-family="Avenir Next LT Pro,Avenir Next LT Pro_MSFontService,sans-serif" font-weight="700" font-size="64" transform="matrix(1 0 0 1 3890.77 1755)">Inheritance</text></g></svg>